<svg aria-hidden="true" focusable="false" viewBox="0 0 24 24" xmlns="http://www.w3.org/2000/svg">
  <path d="M11.167 4.592V2.834h-2.5v1.758c-4.759.65-5.834 4.909-5.834 4.909H17s-1.075-4.259-5.833-4.909z" /><path fill-rule="evenodd" clip-rule="evenodd" d="M13.75 11.168H3.257s-.416 7.275 6.667 10c1.424-.548 2.545-1.28 3.427-2.1A5.81 5.81 0 0112 15.333c0-1.631.67-3.106 1.75-4.165z" /><path d="M22 13.667L20.333 12l-2.083 2.083L16.167 12 14.5 13.667l2.083 2.083-2.083 2.083 1.667 1.667 2.083-2.083 2.083 2.083L22 17.833l-2.083-2.083L22 13.667z" />
</svg>
